<mxfile host="app.diagrams.net" modified="2021-01-21T10:47:17.626Z" agent="5.0 (Macintosh; Intel Mac OS X 11_1_0) AppleWebKit/537.36 (KHTML, like Gecko) Chrome/87.0.4280.141 Safari/537.36" etag="Q67bDvQxeYyA0KORcFVD" version="14.2.6" type="github">
  <diagram id="5hDAxi_boIst-9sQSkmx" name="第 1 页">
    <mxGraphModel dx="1186" dy="1969" grid="1" gridSize="10" guides="1" tooltips="1" connect="1" arrows="1" fold="1" page="1" pageScale="1" pageWidth="827" pageHeight="1169" background="#F4F3E8" math="0" shadow="0">
      <root>
        <mxCell id="0" />
        <mxCell id="1" parent="0" />
        <mxCell id="SthEWhPictm2hqEMNAb6-64" value="Archived" style="shape=rect;strokeColor=none;fillColor=#333333;fontColor=#FFFFFF;align=left;spacing=16;fontSize=13;spacingLeft=8;" vertex="1" parent="1">
          <mxGeometry x="180" y="-340" width="358" height="48" as="geometry" />
        </mxCell>
        <mxCell id="SthEWhPictm2hqEMNAb6-65" value="UNDO" style="text;verticalAlign=middle;align=center;fontColor=#EEFF41;fontSize=14;resizeHeight=1;" vertex="1" parent="SthEWhPictm2hqEMNAb6-64">
          <mxGeometry x="1" width="88" height="48" relative="1" as="geometry">
            <mxPoint x="-88" as="offset" />
          </mxGeometry>
        </mxCell>
        <mxCell id="SthEWhPictm2hqEMNAb6-60" value="" style="dashed=0;shape=rect;strokeColor=none;fillColor=#000000;resizeWidth=1;" vertex="1" parent="1">
          <mxGeometry x="170" y="374" width="358" height="48" as="geometry">
            <mxPoint y="-48" as="offset" />
          </mxGeometry>
        </mxCell>
        <mxCell id="SthEWhPictm2hqEMNAb6-61" value="" style="dashed=0;shape=mxgraph.gmdl.back;strokeColor=#ffffff;fillColor=#000000;strokeWidth=2;" vertex="1" parent="SthEWhPictm2hqEMNAb6-60">
          <mxGeometry x="0.25" y="0.5" width="14" height="14" relative="1" as="geometry">
            <mxPoint x="-7" y="-7" as="offset" />
          </mxGeometry>
        </mxCell>
        <mxCell id="SthEWhPictm2hqEMNAb6-62" value="" style="shape=ellipse;strokeColor=#ffffff;fillColor=#000000;strokeWidth=2;" vertex="1" parent="SthEWhPictm2hqEMNAb6-60">
          <mxGeometry x="0.5" y="0.5" width="14" height="14" relative="1" as="geometry">
            <mxPoint x="-7" y="-7" as="offset" />
          </mxGeometry>
        </mxCell>
        <mxCell id="SthEWhPictm2hqEMNAb6-63" value="" style="shape=rect;strokeColor=#ffffff;fillColor=#000000;strokeWidth=2;" vertex="1" parent="SthEWhPictm2hqEMNAb6-60">
          <mxGeometry x="0.75" y="0.5" width="14" height="14" relative="1" as="geometry">
            <mxPoint x="-7" y="-7" as="offset" />
          </mxGeometry>
        </mxCell>
        <mxCell id="SthEWhPictm2hqEMNAb6-67" value="" style="group" vertex="1" connectable="0" parent="1">
          <mxGeometry x="140" y="-480" width="464" height="128.5" as="geometry" />
        </mxCell>
        <mxCell id="SthEWhPictm2hqEMNAb6-34" value="" style="dashed=0;shape=rect;strokeColor=none;resizeWidth=1;fontSize=20;fontColor=#FFFFFF;spacingTop=0;align=center;spacingLeft=72;container=0;fillColor=#2D3986;" vertex="1" parent="SthEWhPictm2hqEMNAb6-67">
          <mxGeometry x="40" y="92.11552346570399" width="358" height="48.76895306859206" as="geometry">
            <mxPoint x="-40" y="-110" as="offset" />
          </mxGeometry>
        </mxCell>
        <mxCell id="SthEWhPictm2hqEMNAb6-35" value="" style="dashed=0;shape=mxgraph.gmdl.preferences;strokeColor=none;fillColor=#ffffff;" vertex="1" parent="SthEWhPictm2hqEMNAb6-67">
          <mxGeometry x="56" y="111.65523465703973" width="24" height="13.689530685920579" as="geometry">
            <mxPoint x="16" y="-8" as="offset" />
          </mxGeometry>
        </mxCell>
        <mxCell id="SthEWhPictm2hqEMNAb6-36" value="" style="dashed=0;shape=mxgraph.gmdl.triangle;strokeColor=none;fillColor=#ffffff;" vertex="1" parent="SthEWhPictm2hqEMNAb6-67">
          <mxGeometry x="350" y="116.36101083032493" width="10" height="4.277978339350181" as="geometry">
            <mxPoint x="104" y="-3" as="offset" />
          </mxGeometry>
        </mxCell>
        <mxCell id="SthEWhPictm2hqEMNAb6-38" value="" style="dashed=0;shape=mxgraph.gmdl.settings;strokeColor=none;fillColor=#ffffff;" vertex="1" parent="SthEWhPictm2hqEMNAb6-67">
          <mxGeometry x="374" y="111.65523465703973" width="5" height="13.689530685920579" as="geometry">
            <mxPoint x="-24" y="-8" as="offset" />
          </mxGeometry>
        </mxCell>
        <mxCell id="SthEWhPictm2hqEMNAb6-69" value="为什么深度学习如此重要又罕见" style="text;html=1;strokeColor=none;fillColor=none;align=left;verticalAlign=middle;whiteSpace=wrap;rounded=0;fontColor=#FFFFFF;fontSize=17;" vertex="1" parent="SthEWhPictm2hqEMNAb6-67">
          <mxGeometry x="94" y="102.25" width="250" height="28.5" as="geometry" />
        </mxCell>
      </root>
    </mxGraphModel>
  </diagram>
</mxfile>
